0
SECTION
2
HEADER
9
$INSUNITS
70
4
9
$ACADVER
1
AC1014
9
$HANDSEED
5
FFFF
0
ENDSEC
0
SECTION
2
TABLES
0
TABLE
2
VPORT
5
8
100
AcDbSymbolTable
0
ENDTAB
0
TABLE
2
LTYPE
5
5
100
AcDbSymbolTable
0
LTYPE
5
14
100
AcDbSymbolTableRecord
100
AcDbLinetypeTableRecord
2
BYBLOCK
70
0
0
LTYPE
5
15
100
AcDbSymbolTableRecord
100
AcDbLinetypeTableRecord
2
BYLAYER
70
0
0
ENDTAB
0
TABLE
2
LAYER
5
2
100
AcDbSymbolTable
70
2
0
LAYER
5
50
100
AcDbSymbolTableRecord
100
AcDbLayerTableRecord
2
0
70
0
6
CONTINUOUS
0
ENDTAB
0
TABLE
2
STYLE
5
3
100
AcDbSymbolTable
70
1
0
STYLE
5
11
100
AcDbSymbolTableRecord
100
AcDbTextStyleTableRecord
2
STANDARD
70
0
0
ENDTAB
0
TABLE
2
VIEW
5
6
100
AcDbSymbolTable
70
0
0
ENDTAB
0
TABLE
2
UCS
5
7
100
AcDbSymbolTable
70
0
0
ENDTAB
0
TABLE
2
APPID
5
9
100
AcDbSymbolTable
70
2
0
APPID
5
12
100
AcDbSymbolTableRecord
100
AcDbRegAppTableRecord
2
ACAD
70
0
0
ENDTAB
0
TABLE
2
DIMSTYLE
5
A
100
AcDbSymbolTable
70
1
0
ENDTAB
0
TABLE
2
BLOCK_RECORD
5
1
100
AcDbSymbolTable
70
1
0
BLOCK_RECORD
5
1F
100
AcDbSymbolTableRecord
100
AcDbBlockTableRecord
2
*MODEL_SPACE
0
BLOCK_RECORD
5
1B
100
AcDbSymbolTableRecord
100
AcDbBlockTableRecord
2
*PAPER_SPACE
0
ENDTAB
0
ENDSEC
0
SECTION
2
BLOCKS
0
BLOCK
5
20
100
AcDbEntity
100
AcDbBlockBegin
2
*MODEL_SPACE
0
ENDBLK
5
21
100
AcDbEntity
100
AcDbBlockEnd
0
BLOCK
5
1C
100
AcDbEntity
100
AcDbBlockBegin
2
*PAPER_SPACE
0
ENDBLK
5
1D
100
AcDbEntity
100
AcDbBlockEnd
0
ENDSEC
0
SECTION
2
ENTITIES
0
LWPOLYLINE
5
100
100
AcDbEntity
8
0
100
AcDbPolyline
90
12
70
1
43
0.0
10
5.0192593015920846
20
17.500000000000004
10
-2.6696006283742904
20
17.500000000000004
42
0.17632698070846492
10
-3.6337820429040986
20
17.149066664678468
10
-5.9113591885425159
20
15.237952521795465
42
0.40901279368533766
10
-6.1132136723171762
20
13.145296813170029
42
-0.02794033546781427
10
-5.7867495576526125
20
12.692307692307697
42
0.25592414111558032
10
-4.522774424948385
20
12.000000000000007
10
4.5227744249482642
20
12.000000000000002
42
0.25592414111558276
10
5.7867495576322217
20
12.692307692320686
42
-0.049297077329216642
10
6.3953019730583183
20
13.464989485525766
42
0.27613394984750989
10
6.7414558192174434
20
14.964989485527552
42
-0.058828290495873591
10
6.5148148473785161
20
16.115384615384617
42
0.39183669465333121
0
CIRCLE
5
101
100
AcDbEntity
8
0
100
AcDbCircle
10
19.5
20
4
30
0
40
2.5499999999999989
210
0
220
-0
230
1
0
CIRCLE
5
102
100
AcDbEntity
8
0
100
AcDbCircle
10
13.239999999999949
20
-22.889999999999993
30
0
40
2.5
210
0
220
-0
230
1
0
CIRCLE
5
103
100
AcDbEntity
8
0
100
AcDbCircle
10
9.9999999999999662
20
10
30
0
40
1.6499999999999992
210
0
220
-0
230
1
0
CIRCLE
5
104
100
AcDbEntity
8
0
100
AcDbCircle
10
-9.9999999999995879
20
10.000000000000338
30
0
40
1.6500000000000004
210
0
220
-0
230
1
0
CIRCLE
5
105
100
AcDbEntity
8
0
100
AcDbCircle
10
-10.000000000000044
20
-9.9999999999999929
30
0
40
1.6500000000000004
210
0
220
-0
230
1
0
CIRCLE
5
106
100
AcDbEntity
8
0
100
AcDbCircle
10
9.9999999999999591
20
-9.9999999999999929
30
0
40
1.6499999999999992
210
0
220
-0
230
1
0
CIRCLE
5
107
100
AcDbEntity
8
0
100
AcDbCircle
10
6.1886576981083481e-17
20
-9.6500000000004764
30
0
40
2.5
210
0
220
-0
230
1
0
LWPOLYLINE
5
108
100
AcDbEntity
8
0
100
AcDbPolyline
90
16
70
1
43
0.0
10
4.522774424948266
20
8.0000000000000089
10
-4.5227744249483504
20
8.0000000000000089
42
0.25592414111557976
10
-5.7867495576522803
20
7.3076923076921201
42
-0.17408202057803621
10
-8.4615384615384741
20
5.242570431979634
42
0.32530462932504017
10
-9.5000000000000071
20
3.8153415615735216
10
-9.5000000000000071
20
-3.8153415615733599
42
0.32530462932504173
10
-8.4615384615384688
20
-5.2425704319794768
42
-0.17379456469479207
10
-5.7897569518060994
20
-7.30299175471486
42
0.53363945725148199
10
-3.2761066864484176
20
-7.3549782181845833
42
-0.52042817324557145
10
3.2761066864520929
20
-7.3549782181898307
42
0.53363945725219142
10
5.7897569518048373
20
-7.3029917547169498
42
-0.13107839734354776
10
7.6923076923076579
20
-5.5643990020496759
42
0.27973928122303582
10
8.4999999999999716
20
-4.2337187026645777
10
8.499999999999968
20
4.2337187026645848
42
0.27973928122303621
10
7.6923076923076517
20
5.5643990020496714
42
-0.13136221606135037
10
5.7867495576525041
20
7.3076923076923155
42
0.25592414111558015
0
LWPOLYLINE
5
109
100
AcDbEntity
8
0
100
AcDbPolyline
90
14
70
1
43
0.0
10
5.6114998350785079
20
-12.396052232822202
42
0.22075514370397165
10
8.9970529818598504
20
-14.898377004558112
42
-0.60461903823631846
10
10.471591297698117
20
-20.002801832738495
42
0.33090691250237414
10
9.6771058286750833
20
-24.708181818179341
42
-0.56023150425973689
10
8.3410205144290384
20
-26.889999999996196
10
6.9114325577257141
20
-26.889999999996196
42
-0.36830497624276881
10
4.9367375412326391
20
-25.207142857140138
42
0.49581220027176176
10
-2.0826010114684115
20
-21.454367697775048
42
-0.38694650908161693
10
-4.0064194205855816
20
-20.840678007107563
10
-7.0116293858231185
20
-15.635501659903856
42
-0.35770986499805635
10
-6.7019932924203633
20
-13.75807819992604
42
0.087913738234221064
10
-5.6114998350725749
20
-12.396052232826221
42
-0.53363945725149264
10
-3.1076350780601314
20
-12.16845274357382
42
0.47674428277886821
10
3.1076350780636517
20
-12.168452743569464
42
-0.5336394572524179
0
LWPOLYLINE
5
110
100
AcDbEntity
8
0
100
AcDbPolyline
90
16
70
1
43
0.0
10
23.621320343559606
20
-10.878679656440347
10
22.118679656436537
20
-12.381320343563429
42
0.19891236737965773
10
21.239999999996186
20
-14.502640687123062
10
21.239999999996151
20
-22.889999999999986
42
-0.41421356237309537
10
13.239999999999945
20
-30.889999999996192
10
-3.9968028886505635e-14
20
-30.889999999996199
42
-0.26794919243112264
10
-4.2348642245026475
20
-28.444999999998103
10
-13.098076211353453
20
-13.093466520519005
42
-0.13165249758739525
10
-13.500000000000004
20
-11.593466520519499
10
-13.49999999999997
20
11.387625709296525
42
-0.22169466264294033
10
-12.428362829059587
20
13.685759038653462
10
-5.1439188088332166
20
19.798133329356933
42
-0.17632698070846659
10
-3.2155559797735855
20
20.500000000000004
10
20.499999999999964
20
20.5
42
-0.41421356237309492
10
24.499999999999961
20
16.500000000000004
10
24.499999999999961
20
-8.7573593128806984
42
-0.19891236737965776
0
CIRCLE
5
111
100
AcDbEntity
8
0
100
AcDbCircle
10
-4.1980308118638732e-14
20
-26.000000000000007
30
0
40
1.7000000000000002
210
0
220
0
230
1
0
CIRCLE
5
112
100
AcDbEntity
8
0
100
AcDbCircle
10
15.999999999999963
20
-8.4999999999999982
30
0
40
1.6999999999999993
210
0
220
0
230
1
0
CIRCLE
5
113
100
AcDbEntity
8
0
100
AcDbCircle
10
11.50000000000005
20
16.500000000000014
30
0
40
1.6999999999999993
210
0
220
0
230
1
0
CIRCLE
5
114
100
AcDbEntity
8
0
100
AcDbCircle
10
20.499999999999968
20
16.5
30
0
40
1.6999999999999993
210
0
220
0
230
1
0
ENDSEC
0
SECTION
2
OBJECTS
0
DICTIONARY
5
C
100
AcDbDictionary
3
ACAD_GROUP
350
D
3
ACAD_MLINESTYLE
350
17
0
DICTIONARY
5
D
100
AcDbDictionary
0
DICTIONARY
5
1A
330
C
100
AcDbDictionary
0
DICTIONARY
5
17
100
AcDbDictionary
0
ENDSEC
0
EOF
