0
SECTION
2
HEADER
9
$INSUNITS
70
4
9
$ACADVER
1
AC1014
9
$HANDSEED
5
FFFF
0
ENDSEC
0
SECTION
2
TABLES
0
TABLE
2
VPORT
5
8
100
AcDbSymbolTable
0
ENDTAB
0
TABLE
2
LTYPE
5
5
100
AcDbSymbolTable
0
LTYPE
5
14
100
AcDbSymbolTableRecord
100
AcDbLinetypeTableRecord
2
BYBLOCK
70
0
0
LTYPE
5
15
100
AcDbSymbolTableRecord
100
AcDbLinetypeTableRecord
2
BYLAYER
70
0
0
ENDTAB
0
TABLE
2
LAYER
5
2
100
AcDbSymbolTable
70
2
0
LAYER
5
50
100
AcDbSymbolTableRecord
100
AcDbLayerTableRecord
2
0
70
0
6
CONTINUOUS
0
ENDTAB
0
TABLE
2
STYLE
5
3
100
AcDbSymbolTable
70
1
0
STYLE
5
11
100
AcDbSymbolTableRecord
100
AcDbTextStyleTableRecord
2
STANDARD
70
0
0
ENDTAB
0
TABLE
2
VIEW
5
6
100
AcDbSymbolTable
70
0
0
ENDTAB
0
TABLE
2
UCS
5
7
100
AcDbSymbolTable
70
0
0
ENDTAB
0
TABLE
2
APPID
5
9
100
AcDbSymbolTable
70
2
0
APPID
5
12
100
AcDbSymbolTableRecord
100
AcDbRegAppTableRecord
2
ACAD
70
0
0
ENDTAB
0
TABLE
2
DIMSTYLE
5
A
100
AcDbSymbolTable
70
1
0
ENDTAB
0
TABLE
2
BLOCK_RECORD
5
1
100
AcDbSymbolTable
70
1
0
BLOCK_RECORD
5
1F
100
AcDbSymbolTableRecord
100
AcDbBlockTableRecord
2
*MODEL_SPACE
0
BLOCK_RECORD
5
1B
100
AcDbSymbolTableRecord
100
AcDbBlockTableRecord
2
*PAPER_SPACE
0
ENDTAB
0
ENDSEC
0
SECTION
2
BLOCKS
0
BLOCK
5
20
100
AcDbEntity
100
AcDbBlockBegin
2
*MODEL_SPACE
0
ENDBLK
5
21
100
AcDbEntity
100
AcDbBlockEnd
0
BLOCK
5
1C
100
AcDbEntity
100
AcDbBlockBegin
2
*PAPER_SPACE
0
ENDBLK
5
1D
100
AcDbEntity
100
AcDbBlockEnd
0
ENDSEC
0
SECTION
2
ENTITIES
0
LWPOLYLINE
5
100
100
AcDbEntity
8
0
100
AcDbPolyline
90
14
70
1
43
0.0
10
0.46923076923366847
20
-14.627933555724626
42
0.2310341869281376
10
4.2132504423474524
20
-12.342307692308172
42
-0.25592414111558071
10
5.4772255750516807
20
-11.650000000000475
10
12.477019695023619
20
-11.650000000000475
42
-0.46815333248423974
10
13.952625798384384
20
-13.41941905597923
10
13.136181549933175
20
-17.891077943253407
42
-0.28186105365722625
10
12.091327597507171
20
-19.058479190745182
42
0.46815333248400653
10
9.6771058286775506
20
-24.708181818179057
42
-0.56023150425980706
10
8.3410205144316496
20
-26.889999999996196
10
6.4713136224417056
20
-26.889999999996199
42
-0.38694650908162032
10
4.9779335557244675
20
-25.530769230766303
42
0.36017088812627113
10
0.46923076923367307
20
-21.022066444275506
42
-0.38694650908161832
10
-0.88999999999622492
20
-19.528686377558266
10
-0.88999999999622847
20
-16.121313622441868
42
-0.38694650908161915
0
CIRCLE
5
101
100
AcDbEntity
8
0
100
AcDbCircle
10
14.500000000000002
20
6.9000000000000004
30
0
40
2.5499999999999989
210
0
220
-0
230
1
0
CIRCLE
5
102
100
AcDbEntity
8
0
100
AcDbCircle
10
1.3322676295501878e-14
20
-9.6500000000004871
30
0
40
2.5
210
0
220
-0
230
1
0
CIRCLE
5
103
100
AcDbEntity
8
0
100
AcDbCircle
10
20.896842105263115
20
19.400000000000002
30
0
40
1.7000000000000004
210
0
220
-0
230
1
0
CIRCLE
5
104
100
AcDbEntity
8
0
100
AcDbCircle
10
-3.3306690738754696e-14
20
-26
30
0
40
1.6999999999999993
210
0
220
-0
230
1
0
CIRCLE
5
105
100
AcDbEntity
8
0
100
AcDbCircle
10
13.239999999999954
20
-22.889999999999997
30
0
40
2.5
210
0
220
-0
230
1
0
CIRCLE
5
106
100
AcDbEntity
8
0
100
AcDbCircle
10
11.896842105263117
20
19.400000000000002
30
0
40
1.6999999999999993
210
0
220
-0
230
1
0
CIRCLE
5
107
100
AcDbEntity
8
0
100
AcDbCircle
10
16.396842105263115
20
-5.5999999999999979
30
0
40
1.6999999999999993
210
0
220
-0
230
1
0
LWPOLYLINE
5
108
100
AcDbEntity
8
0
100
AcDbPolyline
90
14
70
1
43
0.0
10
20.896842105263126
20
23.399999999999995
10
11.896842105263129
20
23.400000000000013
42
0.39836306564857277
10
7.9027634126438766
20
19.617566994659676
42
-0.18238547815967918
10
-3.4899963239269818
20
-6.2247955303462597
42
0.19647851892155677
10
-4.889999999996224
20
-9.6500000000004782
10
-4.889999999996224
20
-26
42
0.41421356237309515
10
-3.1086244689504383e-14
20
-30.889999999996192
10
13.239999999999954
20
-30.889999999996192
42
0.4142135623730952
10
21.239999999999959
20
-22.889999999999993
10
21.239999999996186
20
-11.99948279238626
42
-0.19891236737965801
10
22.118679656436541
20
-9.8781624488266253
10
24.018162448822757
20
-7.978679656440411
42
0.19891236737965787
10
24.896842105263126
20
-5.8573593128807611
10
24.896842105263115
20
19.399999999999999
42
0.41421356237309459
0
LWPOLYLINE
5
109
100
AcDbEntity
8
0
100
AcDbPolyline
90
8
70
1
43
0.0
10
2.68861446862803
20
-3.5654028972724428
42
0.032525737382790076
10
5.6841115669157514
20
1.1524878032814045
42
-0.77647274795133203
10
8.4999999999895337
20
0.43246167055490004
10
8.4999999999999787
20
-6.149999999986985
42
-0.41421356237309503
10
7.0000000000023554
20
-7.6499999999893689
10
5.4772255750638221
20
-7.6499999999987356
42
-0.25592414111627121
10
4.2132504423396533
20
-6.9576923076805954
42
0.089911924362536616
10
3.0000067821951064
20
-5.6500050866557716
42
-0.41047791159821356
0
ENDSEC
0
SECTION
2
OBJECTS
0
DICTIONARY
5
C
100
AcDbDictionary
3
ACAD_GROUP
350
D
3
ACAD_MLINESTYLE
350
17
0
DICTIONARY
5
D
100
AcDbDictionary
0
DICTIONARY
5
1A
330
C
100
AcDbDictionary
0
DICTIONARY
5
17
100
AcDbDictionary
0
ENDSEC
0
EOF
