0
SECTION
2
HEADER
9
$INSUNITS
70
4
9
$ACADVER
1
AC1014
9
$HANDSEED
5
FFFF
0
ENDSEC
0
SECTION
2
TABLES
0
TABLE
2
VPORT
5
8
100
AcDbSymbolTable
0
ENDTAB
0
TABLE
2
LTYPE
5
5
100
AcDbSymbolTable
0
LTYPE
5
14
100
AcDbSymbolTableRecord
100
AcDbLinetypeTableRecord
2
BYBLOCK
70
0
0
LTYPE
5
15
100
AcDbSymbolTableRecord
100
AcDbLinetypeTableRecord
2
BYLAYER
70
0
0
ENDTAB
0
TABLE
2
LAYER
5
2
100
AcDbSymbolTable
70
2
0
LAYER
5
50
100
AcDbSymbolTableRecord
100
AcDbLayerTableRecord
2
0
70
0
6
CONTINUOUS
0
ENDTAB
0
TABLE
2
STYLE
5
3
100
AcDbSymbolTable
70
1
0
STYLE
5
11
100
AcDbSymbolTableRecord
100
AcDbTextStyleTableRecord
2
STANDARD
70
0
0
ENDTAB
0
TABLE
2
VIEW
5
6
100
AcDbSymbolTable
70
0
0
ENDTAB
0
TABLE
2
UCS
5
7
100
AcDbSymbolTable
70
0
0
ENDTAB
0
TABLE
2
APPID
5
9
100
AcDbSymbolTable
70
2
0
APPID
5
12
100
AcDbSymbolTableRecord
100
AcDbRegAppTableRecord
2
ACAD
70
0
0
ENDTAB
0
TABLE
2
DIMSTYLE
5
A
100
AcDbSymbolTable
70
1
0
ENDTAB
0
TABLE
2
BLOCK_RECORD
5
1
100
AcDbSymbolTable
70
1
0
BLOCK_RECORD
5
1F
100
AcDbSymbolTableRecord
100
AcDbBlockTableRecord
2
*MODEL_SPACE
0
BLOCK_RECORD
5
1B
100
AcDbSymbolTableRecord
100
AcDbBlockTableRecord
2
*PAPER_SPACE
0
ENDTAB
0
ENDSEC
0
SECTION
2
BLOCKS
0
BLOCK
5
20
100
AcDbEntity
100
AcDbBlockBegin
2
*MODEL_SPACE
0
ENDBLK
5
21
100
AcDbEntity
100
AcDbBlockEnd
0
BLOCK
5
1C
100
AcDbEntity
100
AcDbBlockBegin
2
*PAPER_SPACE
0
ENDBLK
5
1D
100
AcDbEntity
100
AcDbBlockEnd
0
ENDSEC
0
SECTION
2
ENTITIES
0
CIRCLE
5
100
100
AcDbEntity
8
0
100
AcDbCircle
10
3.9968028886505635e-14
20
26
30
0
40
1.6999999999999993
210
-0
220
0
230
1
0
CIRCLE
5
101
100
AcDbEntity
8
0
100
AcDbCircle
10
-15.999999999999957
20
8.4999999999999982
30
0
40
1.7000000000000002
210
-0
220
0
230
1
0
CIRCLE
5
102
100
AcDbEntity
8
0
100
AcDbCircle
10
-20.499999999999964
20
-16.5
30
0
40
1.7000000000000002
210
-0
220
0
230
1
0
CIRCLE
5
103
100
AcDbEntity
8
0
100
AcDbCircle
10
-11.499999999999959
20
-16.5
30
0
40
1.7000000000000004
210
-0
220
0
230
1
0
CIRCLE
5
104
100
AcDbEntity
8
0
100
AcDbCircle
10
-14.500000000000002
20
-4
30
0
40
2.5499999999999998
210
-0
220
0
230
1
0
LWPOLYLINE
5
105
100
AcDbEntity
8
0
100
AcDbPolyline
90
8
70
1
43
0.0
10
-2.0133075351651852
20
3.0729518451085891
42
0.038942614739175964
10
-5.6861721184975087
20
-2.5162555058189766
42
-0.77532957173222405
10
-8.5000000000000036
20
-1.7924763283161433
10
-8.4999999999999716
20
6.150000000000472
42
-0.41421356237309481
10
-6.9999999999999662
20
7.6500000000004755
10
-5.4772255750516674
20
7.6500000000004693
42
-0.2559241411155786
10
-4.2132504423474355
20
6.9576923076927777
42
0.12251288643679537
10
-2.4607786411755002
20
5.2974641323556471
42
-0.45724576919344767
0
LWPOLYLINE
5
106
100
AcDbEntity
8
0
100
AcDbPolyline
90
10
70
1
43
0.0
10
-2.3628589746595763
20
21.593539122393793
42
0.13894461275231537
10
0.30000000000004196
20
21.009008114612531
42
-0.43190905733837553
10
1.8900000000000317
20
19.511710548996398
10
1.8900000000000294
20
16.138289451003725
42
-0.43190905733838081
10
0.30000000000003357
20
14.640991885387598
42
0.2719790789670064
10
-4.2132504423474426
20
12.342307692308164
42
-0.2559241411155781
10
-5.4772255750516674
20
11.650000000000475
10
-9.3179597146370625
20
11.650000000000475
42
-0.82482499814228738
10
-9.8782511839746192
20
14.54142857142898
42
0.23835507671600251
10
-4.5243285717634745
20
20.64565787923889
42
-0.48644262009962547
0
CIRCLE
5
107
100
AcDbEntity
8
0
100
AcDbCircle
10
0
20
9.6500000000004764
30
0
40
2.5
210
-0
220
0
230
1
0
CIRCLE
5
108
100
AcDbEntity
8
0
100
AcDbCircle
10
-13.239999999999949
20
22.889999999999993
30
0
40
6.5600000000000005
210
-0
220
0
230
1
0
LWPOLYLINE
5
109
100
AcDbEntity
8
0
100
AcDbPolyline
90
14
70
1
43
0.0
10
-24.499999999999957
20
-16.5
10
-24.499999999999957
20
8.7573593128807143
42
-0.19891236737965823
10
-23.621320343559596
20
10.878679656440365
10
-23.118679656440303
20
11.381320343559658
42
0.19891236737965784
10
-22.239999999999945
20
13.502640687119298
10
-22.239999999999949
20
22.889999999999993
42
-0.41421356237309503
10
-13.239999999999949
20
31.889999999999993
10
3.9607370404156743e-14
20
31.889999999999993
42
-0.41421356237309503
10
5.8900000000000308
20
26
10
5.8900000000000059
20
9.65000000000048
42
-0.20267031986499268
10
4.1042472126274498
20
5.4253988569764511
42
0.16278917432298937
10
-7.5475551074620739
20
-17.114962902506214
42
-0.36969413312039406
10
-11.500000000000385
20
-20.500000000000963
10
-20.499999999999964
20
-20.5
42
-0.41421356237309503
0
ENDSEC
0
SECTION
2
OBJECTS
0
DICTIONARY
5
C
100
AcDbDictionary
3
ACAD_GROUP
350
D
3
ACAD_MLINESTYLE
350
17
0
DICTIONARY
5
D
100
AcDbDictionary
0
DICTIONARY
5
1A
330
C
100
AcDbDictionary
0
DICTIONARY
5
17
100
AcDbDictionary
0
ENDSEC
0
EOF
