0
SECTION
2
HEADER
9
$INSUNITS
70
4
9
$ACADVER
1
AC1014
9
$HANDSEED
5
FFFF
0
ENDSEC
0
SECTION
2
TABLES
0
TABLE
2
VPORT
5
8
100
AcDbSymbolTable
0
ENDTAB
0
TABLE
2
LTYPE
5
5
100
AcDbSymbolTable
0
LTYPE
5
14
100
AcDbSymbolTableRecord
100
AcDbLinetypeTableRecord
2
BYBLOCK
70
0
0
LTYPE
5
15
100
AcDbSymbolTableRecord
100
AcDbLinetypeTableRecord
2
BYLAYER
70
0
0
ENDTAB
0
TABLE
2
LAYER
5
2
100
AcDbSymbolTable
70
2
0
LAYER
5
50
100
AcDbSymbolTableRecord
100
AcDbLayerTableRecord
2
0
70
0
6
CONTINUOUS
0
ENDTAB
0
TABLE
2
STYLE
5
3
100
AcDbSymbolTable
70
1
0
STYLE
5
11
100
AcDbSymbolTableRecord
100
AcDbTextStyleTableRecord
2
STANDARD
70
0
0
ENDTAB
0
TABLE
2
VIEW
5
6
100
AcDbSymbolTable
70
0
0
ENDTAB
0
TABLE
2
UCS
5
7
100
AcDbSymbolTable
70
0
0
ENDTAB
0
TABLE
2
APPID
5
9
100
AcDbSymbolTable
70
2
0
APPID
5
12
100
AcDbSymbolTableRecord
100
AcDbRegAppTableRecord
2
ACAD
70
0
0
ENDTAB
0
TABLE
2
DIMSTYLE
5
A
100
AcDbSymbolTable
70
1
0
ENDTAB
0
TABLE
2
BLOCK_RECORD
5
1
100
AcDbSymbolTable
70
1
0
BLOCK_RECORD
5
1F
100
AcDbSymbolTableRecord
100
AcDbBlockTableRecord
2
*MODEL_SPACE
0
BLOCK_RECORD
5
1B
100
AcDbSymbolTableRecord
100
AcDbBlockTableRecord
2
*PAPER_SPACE
0
ENDTAB
0
ENDSEC
0
SECTION
2
BLOCKS
0
BLOCK
5
20
100
AcDbEntity
100
AcDbBlockBegin
2
*MODEL_SPACE
0
ENDBLK
5
21
100
AcDbEntity
100
AcDbBlockEnd
0
BLOCK
5
1C
100
AcDbEntity
100
AcDbBlockBegin
2
*PAPER_SPACE
0
ENDBLK
5
1D
100
AcDbEntity
100
AcDbBlockEnd
0
ENDSEC
0
SECTION
2
ENTITIES
0
CIRCLE
5
100
100
AcDbEntity
8
0
100
AcDbCircle
10
3.9363999408262733e-14
20
26
30
0
40
1.7000000000000002
210
0
220
0
230
1
0
LWPOLYLINE
5
101
100
AcDbEntity
8
0
100
AcDbPolyline
90
12
70
1
43
0.0
10
-6.3953019730667728
20
-13.464989485511577
42
0.049297077328999031
10
-5.7867495576524997
20
-12.692307692307702
42
-0.25592414111558026
10
-4.5227744249482642
20
-12.000000000000002
10
4.522774424948361
20
-12
42
-0.25592414111558071
10
5.7867495576525911
20
-12.692307692307697
42
0.027940335467703407
10
6.1132136723158013
20
-13.145296813168363
42
-0.40901279368521221
10
5.9113591885403416
20
-15.237952521797345
10
3.6337820429041545
20
-17.149066664678468
42
-0.176326980708465
10
2.6696006283743445
20
-17.5
10
-5.0192593015920828
20
-17.499999999999996
42
-0.39183669465333121
10
-6.5148148473785126
20
-16.115384615384613
42
0.058828290496686871
10
-6.741455819222411
20
-14.964989485512143
42
-0.27613394984814654
0
LWPOLYLINE
5
102
100
AcDbEntity
8
0
100
AcDbPolyline
90
16
70
1
43
0.0
10
-5.7867495576525032
20
-7.3076923076923155
42
0.13136221606135029
10
-7.692307692307657
20
-5.5643990020496803
42
-0.2797392812230361
10
-8.499999999999968
20
-4.2337187026645848
10
-8.4999999999999716
20
4.2337187026645777
42
-0.27973928122303576
10
-7.6923076923076579
20
5.5643990020496759
42
0.13107839734354818
10
-5.7897569518116612
20
7.3029917547213188
42
-0.53363945725219142
10
-3.2761066864520934
20
7.3549782181898307
42
0.52042817324557133
10
3.2761066864484185
20
7.3549782181845833
42
-0.53363945725148176
10
5.7897569518060994
20
7.3029917547148617
42
0.17379456469479257
10
8.461538461538467
20
5.2425704319794733
42
-0.32530462932504167
10
9.5000000000000071
20
3.8153415615733604
10
9.5000000000000071
20
-3.8153415615735216
42
-0.32530462932504001
10
8.4615384615384741
20
-5.2425704319796331
42
0.17408202057803554
10
5.7867495576525823
20
-7.3076923076923128
42
-0.25592414111557976
10
4.5227744249483504
20
-8.0000000000000089
10
-4.5227744249482651
20
-8.0000000000000142
42
-0.25592414111558015
0
LWPOLYLINE
5
103
100
AcDbEntity
8
0
100
AcDbPolyline
90
12
70
1
43
0.0
10
-6.2914803818818568
20
17.170028398959015
42
0.10960900539278272
10
-4.5243285717589616
20
20.645657879236978
42
-0.48644262009936873
10
-2.3628589746560746
20
21.593539122392322
42
0.2756392145676218
10
2.7553035638289232
20
21.827674237172772
42
-0.43190905733837698
10
4.8809327386542449
20
21.325976508324601
10
7.8178015833132219
20
16.239170454209134
42
-0.40208407169569232
10
7.3221257520281391
20
14.2224388109301
42
0.12714178946860499
10
5.6114998350725749
20
12.396052232826221
42
-0.53363945725149264
10
3.107635078060131
20
12.16845274357382
42
0.47674428277886827
10
-3.1076350780636517
20
12.168452743569464
42
-0.53363945725241813
10
-5.6114998350785079
20
12.396052232822202
42
0.05462934590496997
10
-6.234566984907433
20
13.289606999131703
42
-0.36695028618797043
0
CIRCLE
5
104
100
AcDbEntity
8
0
100
AcDbCircle
10
-13.239999999999977
20
22.890000000000008
30
0
40
6.5600000000000014
210
-0
220
0
230
1
0
CIRCLE
5
105
100
AcDbEntity
8
0
100
AcDbCircle
10
0
20
9.6500000000004782
30
0
40
2.5
210
-0
220
0
230
1
0
CIRCLE
5
106
100
AcDbEntity
8
0
100
AcDbCircle
10
-9.9999999999999467
20
9.9999999999999787
30
0
40
1.6499999999999992
210
-0
220
0
230
1
0
CIRCLE
5
107
100
AcDbEntity
8
0
100
AcDbCircle
10
-19.5
20
-4
30
0
40
2.5500000000000012
210
-0
220
0
230
1
0
CIRCLE
5
108
100
AcDbEntity
8
0
100
AcDbCircle
10
10.000000000000037
20
9.9999999999999822
30
0
40
1.6500000000000004
210
-0
220
0
230
1
0
CIRCLE
5
109
100
AcDbEntity
8
0
100
AcDbCircle
10
10.000000000000018
20
-10.000000000000028
30
0
40
1.6500000000000004
210
-0
220
0
230
1
0
CIRCLE
5
110
100
AcDbEntity
8
0
100
AcDbCircle
10
-9.9999999999999467
20
-10.000000000000025
30
0
40
1.6499999999999992
210
-0
220
0
230
1
0
LWPOLYLINE
5
111
100
AcDbEntity
8
0
100
AcDbPolyline
90
16
70
1
43
0.0
10
3.215555979773649
20
-20.5
42
0.17632698070846503
10
5.1439188088332592
20
-19.798133329356936
10
12.428362829059619
20
-13.68575903865346
42
0.22169466264294002
10
13.499999999999998
20
-11.387625709296525
10
13.500000000000004
20
13.593466520527095
42
0.13165249758739592
10
13.098076211353451
20
15.093466520526601
10
5.1008896282903713
20
28.945000000000004
42
0.26794919243112236
10
3.9363999408262733e-14
20
31.889999999999993
10
-13.239999999999949
20
31.889999999999993
42
0.41421356237309631
10
-22.239999999999949
20
22.889999999999993
10
-22.239999999999949
20
13.502640687119316
42
-0.19891236737965801
10
-23.118679656440303
20
11.381320343559672
10
-23.621320343559596
20
10.878679656440383
42
0.1989123673796582
10
-24.499999999999957
20
8.7573593128807321
10
-24.499999999999957
20
-16.5
42
0.41421356237309503
10
-20.499999999999964
20
-20.5
0
CIRCLE
5
112
100
AcDbEntity
8
0
100
AcDbCircle
10
-15.999999999999957
20
8.4999999999999982
30
0
40
1.6999999999999993
210
0
220
0
230
1
0
CIRCLE
5
113
100
AcDbEntity
8
0
100
AcDbCircle
10
-11.499999999999931
20
-16.5
30
0
40
1.6999999999999993
210
0
220
0
230
1
0
CIRCLE
5
114
100
AcDbEntity
8
0
100
AcDbCircle
10
-20.499999999999964
20
-16.5
30
0
40
1.6999999999999993
210
0
220
0
230
1
0
ENDSEC
0
SECTION
2
OBJECTS
0
DICTIONARY
5
C
100
AcDbDictionary
3
ACAD_GROUP
350
D
3
ACAD_MLINESTYLE
350
17
0
DICTIONARY
5
D
100
AcDbDictionary
0
DICTIONARY
5
1A
330
C
100
AcDbDictionary
0
DICTIONARY
5
17
100
AcDbDictionary
0
ENDSEC
0
EOF
